<?xml version="1.0" encoding="iso-8859-1"?>
<!-- Generator: Adobe Illustrator 16.0.0, SVG Export Plug-In . SVG Version: 6.00 Build 0)  -->
<!DOCTYPE svg PUBLIC "-//W3C//DTD SVG 1.1//EN" "http://www.w3.org/Graphics/SVG/1.1/DTD/svg11.dtd">
<svg version="1.1" id="Capa_1" xmlns="http://www.w3.org/2000/svg" xmlns:xlink="http://www.w3.org/1999/xlink" x="0px" y="0px"
	 width="583.885px" height="583.885px" viewBox="0 0 583.885 583.885" style="enable-background:new 0 0 583.885 583.885;"
	 xml:space="preserve">
<g>
	<g>
		<path d="M130.694,182.229c8.16-1.701,10.094-9.009,8.393-17.169c-1.701-8.16-9.535-29.172-17.699-27.471
			c-8.16,1.701-6.953,24.093-5.251,32.253C117.842,178.002,122.535,183.927,130.694,182.229z"/>
		<path d="M222.711,288.652c7.205,4.198,28.062,12.432,32.256,5.227c4.198-7.206-13.256-21.286-20.461-25.48
			c-7.205-4.198-14.749-4.676-18.943,2.53C211.373,278.13,215.51,284.454,222.711,288.652z"/>
		<path d="M217.57,256.934c0.506,0.062,0.947,0.017,1.42,0.029c0.469,0.049,0.902,0.15,1.412,0.15
			c8.335,0,11.722-6.761,11.722-15.096c0-2.171-0.237-5.283-0.722-8.69c-0.318-9.539-2.33-20.906-8.168-21.636
			c-0.481-0.062-0.955-0.029-1.424,0.057c-0.453-0.143-0.918-0.232-1.408-0.232c-5.883,0-9.29,11.028-10.792,20.453
			c-0.906,3.321-1.526,6.381-1.795,8.535C206.782,248.774,209.3,255.901,217.57,256.934z"/>
		<path d="M268.786,243.385c5.577-6.194,17.899-24.934,11.706-30.511s-23.542,8.629-29.123,14.822
			c-5.577,6.194-7.589,13.48-1.391,19.062C256.171,252.336,263.205,249.578,268.786,243.385z"/>
		<path d="M270.944,281.03c8.335-0.195,30.417-4.092,30.225-12.428c-0.191-8.335-22.432-11.199-30.768-11.008
			c-8.335,0.196-15.015,3.733-14.818,12.069C255.775,277.999,262.609,281.223,270.944,281.03z"/>
		<path d="M304.691,319.934c4.3-7.145-12.947-21.474-20.091-25.773c-7.144-4.301-14.68-4.888-18.976,2.256
			c-4.3,7.145-0.253,13.525,6.887,17.825C279.655,318.542,300.39,327.077,304.691,319.934z"/>
		<path d="M167.843,284.979c8.283-0.954,10.869-8.058,9.915-16.34s-6.858-29.915-15.141-28.96
			c-8.282,0.955-9.102,23.366-8.147,31.645S159.561,285.935,167.843,284.979z"/>
		<path d="M142.465,256.812c-4.908-6.74-20.686-22.673-27.426-17.765s3.57,24.819,8.474,31.56c4.908,6.74,11.62,10.212,18.36,5.308
			C148.614,271.006,147.374,263.552,142.465,256.812z"/>
		<path d="M106.688,197.284c7.438-3.766,7.405-11.321,3.639-18.764c-3.766-7.438-16.793-25.688-24.235-21.922
			c-7.438,3.766-0.444,25.071,3.321,32.51C93.179,196.546,99.25,201.05,106.688,197.284z"/>
		<path d="M106.879,299.831c7.381-3.88,11.787-10.021,7.907-17.401c-3.88-7.381-11.437-7.226-18.817-3.346
			c-7.381,3.881-25.422,17.193-21.542,24.57C78.307,311.034,99.503,303.711,106.879,299.831z"/>
		<path d="M107.075,344.634c6.822,4.794,22.338-11.392,27.132-18.214c4.794-6.821,5.916-14.296-0.906-19.09
			s-13.477-1.212-18.271,5.61C110.233,319.758,100.253,339.84,107.075,344.634z"/>
		<path d="M90.376,265.359c8.335-0.172,15.022-3.692,14.851-12.028c-0.171-8.335-6.997-11.579-15.333-11.407
			c-8.335,0.171-30.429,4.011-30.257,12.346C59.809,262.605,82.041,265.53,90.376,265.359z"/>
		<path d="M61.559,190.98c-6.08,5.708,6.63,24.183,12.333,30.262c5.708,6.079,12.799,8.69,18.878,2.982s3.917-12.95-1.787-19.029
			C85.276,199.12,67.638,185.272,61.559,190.98z"/>
		<path d="M163.743,212.246c8.294-0.849,10.975-7.915,10.126-16.21s-6.463-30.005-14.757-29.156
			c-8.295,0.849-9.409,23.244-8.56,31.539C151.396,206.713,155.452,213.095,163.743,212.246z"/>
		<path d="M186.774,182.593c8.335-0.09,11.648-6.884,11.559-15.223c-0.089-8.336-3.712-30.466-12.048-30.376
			s-11.481,22.293-11.392,30.629C174.983,175.962,178.438,182.682,186.774,182.593z"/>
		<path d="M254.739,205.22c5.585-6.189,17.923-24.916,11.73-30.498c-6.193-5.581-23.55,8.609-29.135,14.799
			s-7.601,13.476-1.412,19.058C242.115,214.159,249.153,211.409,254.739,205.22z"/>
		<path d="M212.14,197.383c8.062,2.125,13.056-3.546,15.182-11.608c2.125-8.062,4.512-30.359-3.55-32.484
			c-8.062-2.126-16.989,18.445-19.115,26.503C202.531,187.859,204.077,195.257,212.14,197.383z"/>
		<path d="M147.582,216.334c-5.076-6.613-21.257-22.138-27.871-17.062c-6.613,5.075,4.199,24.721,9.278,31.334
			c5.075,6.614,11.876,9.915,18.49,4.839C154.089,230.369,152.661,222.947,147.582,216.334z"/>
		<path d="M189.993,251.296c8.335,0,11.722-6.761,11.722-15.097c0-8.335-3.382-30.506-11.722-30.506
			c-8.335,0-11.722,22.167-11.722,30.506C178.275,244.535,181.658,251.296,189.993,251.296z"/>
		<path d="M112.461,45.231c8.16-1.702,10.094-9.009,8.393-17.169s-9.535-29.172-17.699-27.471
			c-8.16,1.701-6.952,24.093-5.251,32.252C99.605,41.008,104.297,46.933,112.461,45.231z"/>
		<path d="M248.235,37.724c-6.189-5.585-23.55,8.609-29.135,14.798c-5.585,6.189-7.601,13.477-1.412,19.059
			c6.189,5.585,13.231,2.831,18.812-3.358C242.086,62.032,254.425,43.31,248.235,37.724z"/>
		<path d="M211.148,142.854c8.335,0,11.722-6.757,11.722-15.097c0-8.335-3.382-30.506-11.722-30.506
			c-8.335,0-11.722,22.167-11.722,30.506C199.426,136.093,202.809,142.854,211.148,142.854z"/>
		<path d="M296.718,249.529c7.205,4.198,28.062,12.432,32.257,5.226c4.198-7.205-13.256-21.285-20.462-25.479
			c-7.205-4.198-14.749-4.676-18.943,2.53C285.375,239.011,289.513,245.335,296.718,249.529z"/>
		<path d="M112.18,115.289c-4.909-6.74-20.686-22.673-27.426-17.765c-6.74,4.908,3.57,24.818,8.474,31.559
			c4.908,6.74,11.62,10.212,18.36,5.309C118.328,129.483,117.088,122.028,112.18,115.289z"/>
		<path d="M23.746,187.162c5.508,6.259,24.386-5.843,30.645-11.351c6.259-5.508,9.099-12.51,3.595-18.772
			c-5.508-6.259-12.815-4.337-19.074,1.171C32.648,163.718,18.237,180.899,23.746,187.162z"/>
		<path d="M101.478,62.281c-6.614,5.075,4.198,24.721,9.278,31.334c5.076,6.614,11.877,9.915,18.491,4.839
			c6.614-5.075,5.182-12.496,0.106-19.11C124.272,72.727,108.091,57.202,101.478,62.281z"/>
		<path d="M250.553,106.391c5.577-6.194,17.899-24.934,11.706-30.511s-23.542,8.629-29.123,14.822
			c-5.578,6.194-7.589,13.48-1.392,19.062C237.941,115.346,244.971,112.584,250.553,106.391z"/>
		<path d="M237.346,132.67c0.196,8.335,7.03,11.559,15.365,11.366c8.335-0.195,30.417-4.092,30.225-12.428
			c-0.196-8.335-22.432-11.199-30.767-11.008C243.829,120.793,237.154,124.334,237.346,132.67z"/>
		<path d="M149.609,147.985c8.282-0.954,10.869-8.058,9.915-16.34c-0.955-8.282-6.858-29.915-15.141-28.96
			c-8.282,0.955-9.103,23.366-8.147,31.645C137.19,142.608,141.327,148.94,149.609,147.985z"/>
		<path d="M71.18,52.114c3.766,7.438,9.837,11.941,17.274,8.176c7.438-3.766,7.405-11.321,3.64-18.764
			C88.328,34.089,75.3,15.839,67.858,19.604C60.42,23.37,67.414,44.676,71.18,52.114z"/>
		<path d="M58.193,119.769c-7.381,3.88-25.422,17.193-21.542,24.569c3.88,7.377,25.076,0.058,32.453-3.827
			c7.38-3.88,11.787-10.02,7.907-17.4C73.13,115.729,65.569,115.889,58.193,119.769z"/>
		<path d="M42.424,116.639c8.335-0.171,15.022-3.692,14.851-12.027c-0.171-8.336-6.997-11.579-15.333-11.407
			c-8.335,0.171-30.429,4.01-30.257,12.346C11.856,113.885,34.088,116.811,42.424,116.639z"/>
		<path d="M74.538,87.23c6.079-5.708,3.917-12.95-1.787-19.029c-5.708-6.079-23.346-19.923-29.425-14.215
			c-6.079,5.708,6.63,24.183,12.334,30.262C61.367,90.323,68.458,92.935,74.538,87.23z"/>
		<path d="M296.625,182.91c2.791-7.857,7.021-29.877-0.836-32.668c-7.859-2.791-18.463,16.969-21.254,24.822
			c-2.791,7.858-1.864,15.357,5.994,18.148C288.387,196.003,293.833,190.769,296.625,182.91z"/>
		<path d="M289.859,70.735c-8.201-1.498-15.512,19.702-17.01,27.902c-1.497,8.201,0.616,15.46,8.817,16.957
			c8.201,1.497,12.747-4.541,14.244-12.746C297.404,94.647,298.061,72.236,289.859,70.735z"/>
		<path d="M310.48,172.584c-1.624,8.177,4.346,12.812,12.521,14.439c8.177,1.624,30.58,2.627,32.204-5.549
			c1.623-8.177-19.458-15.818-27.634-17.442C319.395,162.404,312.108,164.403,310.48,172.584z"/>
		<path d="M368.126,137.19c-2.203-8.042-24.476-5.447-32.518-3.244s-13.664,7.25-11.465,15.292s9.616,9.519,17.654,7.315
			C349.844,154.351,370.33,145.231,368.126,137.19z"/>
		<path d="M323.149,96.732c-7.45-3.745-20.429,14.537-24.175,21.987c-3.745,7.45-3.762,15.007,3.688,18.752
			s13.509-0.771,17.255-8.222C323.659,121.805,330.594,100.482,323.149,96.732z"/>
		<path d="M145.509,75.252c8.295-0.849,10.976-7.916,10.127-16.21c-0.849-8.295-6.463-30.005-14.758-29.156
			c-8.294,0.849-9.408,23.244-8.56,31.539C133.163,69.719,137.214,76.101,145.509,75.252z"/>
		<path d="M180.099,30.376C180.009,22.04,176.386-0.09,168.051,0S156.57,22.293,156.66,30.629c0.09,8.335,3.545,15.059,11.881,14.97
			C176.876,45.509,180.189,38.715,180.099,30.376z"/>
		<path d="M186.423,56.908c-2.126,8.062-0.58,15.459,7.482,17.585c8.062,2.125,13.056-3.546,15.182-11.608
			c2.126-8.062,4.513-30.359-3.549-32.484C197.476,28.274,188.549,48.846,186.423,56.908z"/>
		<path d="M171.76,114.302c8.335,0,11.722-6.761,11.722-15.097c0-8.335-3.382-30.506-11.722-30.506
			c-8.335,0-11.722,22.167-11.722,30.506C160.038,107.541,163.424,114.302,171.76,114.302z"/>
		<path d="M453.19,311.688c8.16,1.701,12.853-4.227,14.554-12.387s2.913-30.551-5.251-32.252
			c-8.16-1.702-15.997,19.311-17.699,27.47C443.096,302.683,445.031,309.986,453.19,311.688z"/>
		<path d="M363.484,340.974c-0.486,0-0.955,0.09-1.408,0.232c-0.469-0.086-0.942-0.118-1.424-0.057
			c-5.839,0.729-7.85,12.097-8.168,21.636c-0.485,3.407-0.723,6.52-0.723,8.69c0,8.336,3.383,15.096,11.723,15.096
			c0.506,0,0.938-0.102,1.411-0.15c0.474-0.009,0.914,0.036,1.42-0.028c8.274-1.037,10.792-8.16,9.755-16.435
			c-0.269-2.154-0.889-5.214-1.795-8.535C372.774,352.002,369.367,340.974,363.484,340.974z"/>
		<path d="M333.912,376.221c6.193-5.577,4.187-12.864-1.392-19.062c-5.577-6.193-22.925-20.404-29.123-14.823
			c-6.193,5.578,6.124,24.317,11.706,30.511C320.68,379.04,327.718,381.798,333.912,376.221z"/>
		<path d="M312.94,410.493c8.336,0.195,15.17-3.032,15.366-11.367c0.195-8.336-6.483-11.873-14.819-12.068
			c-8.335-0.196-30.576,2.672-30.768,11.008C282.523,406.4,304.605,410.297,312.94,410.493z"/>
		<path d="M328.893,439.289c7.205-4.198,11.343-10.522,7.145-17.724c-4.198-7.205-11.738-6.724-18.943-2.529
			c-7.206,4.198-24.656,18.278-20.462,25.479S321.692,443.487,328.893,439.289z"/>
		<path d="M429.417,400.786c0.954-8.282,0.135-30.689-8.148-31.645c-8.282-0.954-14.182,20.678-15.141,28.96
			s1.632,15.386,9.915,16.341C424.325,415.396,428.461,409.068,429.417,400.786z"/>
		<path d="M442.011,405.376c6.74,4.909,13.452,1.433,18.36-5.308s15.214-26.654,8.474-31.559
			c-6.74-4.908-22.521,11.024-27.426,17.764C436.511,393.014,435.271,400.468,442.011,405.376z"/>
		<path d="M477.197,326.747c7.438,3.766,13.509-0.739,17.275-8.177c3.765-7.438,10.759-28.743,3.319-32.509
			c-7.437-3.767-20.468,14.483-24.233,21.921C469.792,315.425,469.759,322.98,477.197,326.747z"/>
		<path d="M509.458,433.116c3.879-7.381-14.166-20.689-21.542-24.569c-7.381-3.88-14.938-4.031-18.817,3.346
			c-3.88,7.38,0.526,13.521,7.907,17.4C484.386,433.174,505.577,440.497,509.458,433.116z"/>
		<path d="M476.814,474.096c6.821-4.794-3.162-24.876-7.956-31.693c-4.794-6.821-11.449-10.404-18.271-5.61
			c-6.821,4.795-5.7,12.269-0.906,19.091C454.476,462.704,469.992,478.89,476.814,474.096z"/>
		<path d="M524.25,383.732c0.172-8.336-21.922-12.175-30.256-12.347c-8.336-0.171-15.161,3.072-15.333,11.408
			c-0.171,8.335,6.516,11.856,14.852,12.027C501.848,394.993,524.081,392.067,524.25,383.732z"/>
		<path d="M509.991,350.704c5.709-6.079,18.414-24.553,12.334-30.261c-6.078-5.708-23.717,8.14-29.424,14.215
			c-5.708,6.079-7.866,13.32-1.787,19.028C497.193,359.391,504.284,356.779,509.991,350.704z"/>
		<path d="M424.773,296.343c-8.294-0.849-13.912,20.86-14.757,29.155c-0.849,8.295,1.832,15.361,10.126,16.21
			c8.295,0.849,12.347-5.532,13.195-13.827C434.182,319.586,433.068,297.191,424.773,296.343z"/>
		<path d="M397.6,266.457c-8.335-0.09-11.958,22.04-12.048,30.375c-0.09,8.336,3.219,15.133,11.559,15.223
			c8.335,0.09,11.791-6.63,11.881-14.97C409.082,288.75,405.94,266.547,397.6,266.457z"/>
		<path d="M347.963,338.036c6.189-5.586,4.174-12.868-1.412-19.058c-5.585-6.189-22.945-20.384-29.135-14.798
			c-6.189,5.585,6.148,24.309,11.729,30.497C334.732,340.872,341.774,343.621,347.963,338.036z"/>
		<path d="M342.529,298.656c6.189-5.586,4.174-12.868-1.412-19.058c-5.585-6.189-22.945-20.384-29.135-14.799
			c-6.189,5.586,6.148,24.31,11.729,30.498C329.297,301.487,336.339,304.237,342.529,298.656z"/>
		<path d="M379.228,309.26c-2.126-8.062-11.053-28.633-19.114-26.504c-8.062,2.13-5.68,24.423-3.55,32.485
			c2.126,8.062,7.123,13.733,15.182,11.607C379.807,324.719,381.354,317.317,379.228,309.26z"/>
		<path d="M436.41,364.907c6.613,5.075,13.411,1.774,18.49-4.839c5.075-6.614,15.892-26.259,9.278-31.335
			c-6.614-5.075-22.795,10.449-27.871,17.062C431.228,352.41,429.795,359.831,436.41,364.907z"/>
		<path d="M393.892,380.758c8.335,0,11.722-6.757,11.722-15.096c0-8.336-3.383-30.507-11.722-30.507
			c-8.336,0-11.723,22.167-11.723,30.507C382.169,373.997,385.552,380.758,393.892,380.758z"/>
		<path d="M480.73,130.054c-8.159-1.701-15.997,19.312-17.698,27.471c-1.702,8.16,0.232,15.468,8.393,17.169
			c8.159,1.701,12.852-4.227,14.553-12.387C487.683,154.146,488.894,131.756,480.73,130.054z"/>
		<path d="M254.91,384.218c4.198,7.205,25.055-1.028,32.256-5.227c7.206-4.198,11.343-10.522,7.145-17.724
			c-4.199-7.205-11.739-6.724-18.944-2.529C268.166,362.933,250.716,377.013,254.91,384.218z"/>
		<path d="M472.297,263.854c6.74,4.908,13.451,1.433,18.359-5.308s15.215-26.655,8.475-31.56
			c-6.74-4.908-22.521,11.024-27.426,17.765S465.557,258.945,472.297,263.854z"/>
		<path d="M529.495,305.273c6.258,5.508,25.137,17.609,30.645,11.351s-8.902-23.439-15.162-28.947
			c-6.258-5.508-13.57-7.43-19.074-1.171C520.395,292.761,523.235,299.766,529.495,305.273z"/>
		<path d="M454.643,227.913c6.613,5.075,13.411,1.774,18.49-4.839c5.075-6.614,15.892-26.259,9.278-31.335
			c-6.614-5.075-22.795,10.449-27.871,17.063C449.461,215.416,448.029,222.838,454.643,227.913z"/>
		<path d="M434.28,277.444c8.282,0.954,12.419-5.369,13.374-13.651c0.955-8.283,0.135-30.69-8.147-31.645
			c-8.282-0.955-14.183,20.677-15.142,28.959C423.407,269.391,425.998,276.489,434.28,277.444z"/>
		<path d="M512.709,181.576c3.766-7.438,10.758-28.743,3.32-32.509c-7.438-3.767-20.469,14.483-24.234,21.922
			c-3.766,7.438-3.799,14.998,3.64,18.764C502.872,193.519,508.944,189.015,512.709,181.576z"/>
		<path d="M547.239,273.801c3.879-7.381-14.166-20.689-21.543-24.569c-7.377-3.881-14.938-4.031-18.816,3.345
			c-3.881,7.377,0.525,13.521,7.906,17.401C522.163,273.857,543.358,281.182,547.239,273.801z"/>
		<path d="M526.61,234.074c-0.172,8.335,6.516,11.856,14.852,12.027c8.334,0.172,30.566-2.754,30.738-11.09
			c0.172-8.335-21.922-12.174-30.258-12.346C533.606,222.495,526.782,225.738,526.61,234.074z"/>
		<path d="M511.137,197.664c-5.707,6.079-7.865,13.321-1.785,19.029c6.078,5.708,13.17,3.097,18.877-2.982
			c5.709-6.08,18.414-24.554,12.334-30.262C534.485,177.741,516.846,191.585,511.137,197.664z"/>
		<path d="M387.429,249.603c-1.624-8.177-8.915-10.18-17.092-8.552c-8.176,1.624-29.257,9.266-27.634,17.441
			c1.624,8.177,24.027,7.173,32.204,5.549C383.083,262.418,389.053,257.782,387.429,249.603z"/>
		<path d="M373.761,226.261c2.203-8.042-3.424-13.089-11.465-15.292c-8.042-2.203-30.314-4.798-32.518,3.243
			c-2.203,8.042,18.282,17.161,26.324,19.364C364.144,235.779,371.562,234.298,373.761,226.261z"/>
		<path d="M443.011,159.349c-8.295-0.849-13.913,20.861-14.758,29.155c-0.849,8.295,1.832,15.361,10.127,16.21
			c8.294,0.849,12.346-5.532,13.194-13.827C452.416,182.593,451.301,160.197,443.011,159.349z"/>
		<path d="M415.838,129.463c-8.336-0.09-11.959,22.04-12.049,30.375c-0.09,8.336,3.22,15.133,11.559,15.223
			c8.336,0.09,11.791-6.63,11.881-14.97C427.319,151.756,424.173,129.553,415.838,129.463z"/>
		<path d="M389.979,203.955c8.062-2.126,9.608-9.526,7.482-17.585c-2.125-8.058-11.053-28.633-19.114-26.503
			c-8.062,2.125-5.68,24.423-3.55,32.484C376.923,200.41,381.921,206.081,389.979,203.955z"/>
		<path d="M423.847,228.664c0-8.336-3.383-30.507-11.722-30.507c-8.336,0-11.722,22.167-11.722,30.507
			c0,8.335,3.382,15.096,11.722,15.096C420.464,243.76,423.847,237.003,423.847,228.664z"/>
		<path d="M336.017,515.81c6.553-3.427,13.17-7.119,18.891-11.828c32.411-0.628,67.76-25.858,69.931-59.14
			c0.856-13.142-19.547-13.06-20.399,0c-1.077,16.487-16.521,29.348-33.064,35.243c7.434-18.751,7.222-38.931,5.94-59.601
			c-0.812-13.063-21.216-13.146-20.4,0c0.91,14.676,1.661,29.042-1.362,43.546c-1.856,8.911-5.826,15.528-11.114,20.898
			c-0.89,0.566-1.62,1.293-2.22,2.121c-6.344,5.688-14.234,9.968-22.558,14.321c-9.393,4.912-19.735,12.301-27.818,21.261
			c-0.657-1.686-1.297-3.37-2.052-5.067c-10.327-23.285-34.452-38.141-49.552-57.973c-9.245-12.143-16.03-25.447-21.032-39.454
			c3.558-10.791,7.12-21.587,10.677-32.379c4.447-13.488,7.03-28.29,22.53-32.562c12.665-3.492,7.283-23.174-5.422-19.67
			c-21.134,5.831-30.808,24.672-37.426,44.921c-4.517-30.069-4.113-61.42-3.859-90.534c0.114-13.158-20.286-13.15-20.4,0
			c-0.224,25.842-0.404,52.346,2.33,78.364c-20.106-4.048-20.38-25.835-18.324-45.676c1.355-13.081-19.058-12.95-20.4,0
			c-1.779,17.177-2.191,34.268,7.552,49.266c7.56,11.637,20.816,16.654,34.097,17.409c2.823,15.949,7.062,31.596,13.476,46.651
			c8.959,21.032,21.02,39.058,37.018,55.349c17.984,18.315,34.146,35.35,36.834,59.03c-0.126,1.068-0.249,2.142-0.273,3.223
			c-0.037,1.53,0.229,2.864,0.689,4.039c-0.02,4.284-0.437,8.769-1.371,13.529c-2.53,12.848,17.132,18.323,19.67,5.423
			c1.742-8.838,2.261-17.263,1.71-25.521C301.068,535.688,324.524,521.819,336.017,515.81z"/>
	</g>
</g>
<g>
</g>
<g>
</g>
<g>
</g>
<g>
</g>
<g>
</g>
<g>
</g>
<g>
</g>
<g>
</g>
<g>
</g>
<g>
</g>
<g>
</g>
<g>
</g>
<g>
</g>
<g>
</g>
<g>
</g>
</svg>
